<svg width="25" height="24" viewBox="0 0 25 24" xmlns="http://www.w3.org/2000/svg">
<g clip-path="url(#clip0_230_310)">
<path d="M18.3333 11C18.3333 11.67 18.3333 12.33 18.3333 13C19.5333 13 21.0933 13 22.3333 13C22.3333 12.33 22.3333 11.67 22.3333 11C21.0933 11 19.5333 11 18.3333 11Z" fill="currentColor"/>
<path d="M16.3333 17.61C17.2933 18.32 18.5433 19.26 19.5333 20C19.9333 19.47 20.3333 18.93 20.7333 18.4C19.7433 17.66 18.4933 16.72 17.5333 16C17.1333 16.54 16.7333 17.08 16.3333 17.61Z" fill="currentColor"/>
<path d="M20.7333 5.6C20.3333 5.07 19.9333 4.53 19.5333 4C18.5433 4.74 17.2933 5.68 16.3333 6.4C16.7333 6.93 17.1333 7.47 17.5333 8C18.4933 7.28 19.7433 6.35 20.7333 5.6Z" fill="currentColor"/>
<path d="M4.33325 9C3.23325 9 2.33325 9.9 2.33325 11V13C2.33325 14.1 3.23325 15 4.33325 15H5.33325V19H7.33325V15H8.33325L13.3333 18V6L8.33325 9H4.33325ZM9.36325 10.71L11.3333 9.53V14.47L9.36325 13.29L8.88325 13H8.33325H4.33325V11H8.33325H8.88325L9.36325 10.71Z" fill="currentColor"/>
<path d="M15.8333 11.9999C15.8333 10.6699 15.2533 9.4699 14.3333 8.6499V15.3399C15.2533 14.5299 15.8333 13.3299 15.8333 11.9999Z" fill="currentColor"/>
</g>
<defs>
<clipPath id="clip0_230_310">
<rect width="24" height="24" fill="white" transform="translate(0.333252)"/>
</clipPath>
</defs>
</svg>
