<svg width="25" height="24" viewBox="0 0 25 24" xmlns="http://www.w3.org/2000/svg">
<path d="M22.3726 5.291L19.3736 2.293C19.2809 2.19996 19.1707 2.12617 19.0494 2.07589C18.9281 2.0256 18.798 1.99981 18.6666 2H6.66663C6.53528 1.99981 6.4052 2.0256 6.28386 2.07589C6.16253 2.12617 6.05233 2.19996 5.95963 2.293L2.96063 5.291C2.8672 5.38368 2.7931 5.49398 2.74263 5.61552C2.69216 5.73705 2.66633 5.8674 2.66663 5.999V19C2.66663 20.103 3.56363 21 4.66663 21H20.6666C21.7696 21 22.6666 20.103 22.6666 19V5.999C22.6669 5.8674 22.6411 5.73705 22.5906 5.61552C22.5402 5.49398 22.4661 5.38368 22.3726 5.291ZM7.08063 4H18.2526L19.2516 4.999H6.08163L7.08063 4ZM4.66663 19V6.999H20.6666L20.6686 19H4.66663Z" fill="currentColor"/>
<path d="M15.6666 12H9.66663V10H7.66663V14H17.6666V10H15.6666V12Z" fill="currentColor"/>
</svg>
