<svg width="48" height="48" viewBox="0 0 15 15" fill="none" xmlns="http://www.w3.org/2000/svg">
  <path
    d="M11 13.3332H1.66667V3.99984H7.66667V2.6665H1.66667C0.933336 2.6665 0.333336 3.2665 0.333336 3.99984V13.3332C0.333336 14.0665 0.933336 14.6665 1.66667 14.6665H11C11.7333 14.6665 12.3333 14.0665 12.3333 13.3332V7.33317H11V13.3332ZM5.80667 11.2198L4.5 9.6465L2.66667 11.9998H10L7.64 8.85984L5.80667 11.2198ZM12.3333 2.6665V0.666504H11V2.6665H9C9.00667 2.67317 9 3.99984 9 3.99984H11V5.99317C11.0067 5.99984 12.3333 5.99317 12.3333 5.99317V3.99984H14.3333V2.6665H12.3333Z"
    fill="#4A5568" />
</svg>
